{"title":"Cliffhanger-720p MP4 AAC x264 BRRip 1993-CC","uid":7561717,"size":2505092832,"categoryP":"video","categoryS":"hd___movies","magnet":"?xt=urn:btih:346060902a76dbc8ceb39e065504251c3d7cab43&amp;dn=Cliffhanger-720p+MP4+AAC+x264+BRRip+1993-CC&amp;tr=udp%3A%2F%2Ftracker.openbittorrent.com%3A80&amp;tr=udp%3A%2F%2Fopen.demonii.com%3A1337&amp;tr=udp%3A%2F%2Ftracker.coppersurfer.tk%3A6969&amp;tr=udp%3A%2F%2Fexodus.desync.com%3A6969","seeders":0,"leechers":1,"uploader":"Caveman44","files":-1,"time":1345757566,"description":" &lt;a href=&quot;http://www.imdb.com/title/tt0106582/&quot; rel=&quot;nofollow&quot; target=&quot;_NEW&quot;&gt;http://www.imdb.com/title/tt0106582/&lt;/a&gt;\n\nSource: Cliffhanger.1993.720p.BluRay.x264.DTS-KiNGS Thanks!\n\nSubs: Arabic, Dutch, English, Farsi, Finnish, Hebrew, Hungarian, Norwegian, Polish, Portuguese, Romanian, Serbian, Slovenian, Spanish, Swedish, Turkish and Vietnamese.\n\nSample and Screens included.\n\nGeneral\nComplete name                    : Cliffhanger-720p MP4 AAC x264 BRRip 1993-CC.mp4\nFormat                           : MPEG-4\nFormat profile                   : Base Media\nCodec ID                         : isom\nFile size                        : 2.31 GiB\nDuration                         : 1h 53mn\nOverall bit rate                 : 2 924 Kbps\nEncoded date                     : UTC 2012-08-05 15:57:29\n\nVideo\nID                               : 1\nFormat                           : AVC\nFormat/Info                      : Advanced Video Codec\nFormat profile                   : &lt;a class=&quot;__cf_email__&quot; href=&quot;/cdn-cgi/l/email-protection&quot; data-cfemail=&quot;c088a9a7a8808cf3eef1&quot;&gt;[email&amp;#160;protected]&lt;/a&gt;&lt;script data-cfhash='f9e31' type=&quot;text/javascript&quot;&gt;\n/* &lt;![CDATA[ */!function(){try{var t=&quot;currentScript&quot;in document?document.currentScript:function(){for(var t=document.getElementsByTagName(&quot;script&quot;),e=t.length;e--;)if(t[e].getAttribute(&quot;data-cfhash&quot;))return t[e]}();if(t&amp;&amp;t.previousSibling){var e,r,n,i,c=t.previousSibling,a=c.getAttribute(&quot;data-cfemail&quot;);if(a){for(e=&quot;&quot;,r=parseInt(a.substr(0,2),16),n=2;a.length-n;n+=2)i=parseInt(a.substr(n,2),16)^r,e+=String.fromCharCode(i);e=document.createTextNode(e),c.parentNode.replaceChild(e,c)}t.parentNode.removeChild(t);}}catch(u){}}()/* ]]&gt; */&lt;/script&gt;\nFormat settings, CABAC           : Yes\nFormat settings, ReFrames        : 5 frames\nCodec ID                         : avc1\nCodec ID/Info                    : Advanced Video Coding\nDuration                         : 1h 53mn\nBit rate mode                    : Variable\nBit rate                         : 2 536 Kbps\nNominal bit rate                 : 2 568 Kbps\nMaximum bit rate                 : 13.1 Mbps\nWidth                            : 1 280 pixels\nHeight                           : 528 pixels\nDisplay aspect ratio             : 2.40:1\nFrame rate mode                  : Variable\nFrame rate                       : 23.976 fps\nMinimum frame rate               : 13.605 fps\nMaximum frame rate               : 24.390 fps\nResolution                       : 24 bits\nColorimetry                      : 4:2:0\nScan type                        : Progressive\nBits/(Pixel*Frame)               : 0.156\nStream size                      : 2.00 GiB (87%)\nWriting library                  : x264 core 112\n\nAudio\nID                               : 2\nFormat                           : AAC\nFormat/Info                      : Advanced Audio Codec\nFormat version                   : Version 4\nFormat profile                   : LC\nFormat settings, SBR             : No\nCodec ID                         : 40\nDuration                         : 1h 53mn\nBit rate mode                    : Variable\nBit rate                         : 384 Kbps\nMaximum bit rate                 : 732 Kbps\nChannel(s)                       : 6 channels\nChannel positions                : Front: L C R, Rear: L R, LFE\nSampling rate                    : 48.0 KHz\nResolution                       : 16 bits\nStream size                      : 310 MiB (13%)\nLanguage                         : English\n\nEnjoy...\n\nRequested by Clair.\n\nComing up soon: The Manchurian Candidate, The Recruit, The Bourne Trilogy and more...","torrent":{"xt":"urn:btih:346060902a76dbc8ceb39e065504251c3d7cab43","amp;dn":"Cliffhanger-720p+MP4+AAC+x264+BRRip+1993-CC","amp;tr":["udp%3A%2F%2Ftracker.openbittorrent.com%3A80","udp%3A%2F%2Fopen.demonii.com%3A1337","udp%3A%2F%2Ftracker.coppersurfer.tk%3A6969","udp%3A%2F%2Fexodus.desync.com%3A6969"],"infoHash":"346060902a76dbc8ceb39e065504251c3d7cab43","infoHashBuffer":{"type":"Buffer","data":[52,96,96,144,42,118,219,200,206,179,158,6,85,4,37,28,61,124,171,67]},"announce":[],"urlList":[]}}